<?xml version="1.0" encoding="UTF-8"?>
<svg id="Layer_2" xmlns="http://www.w3.org/2000/svg" version="1.1" viewBox="0 0 25.9 26.4">
  <!-- Generator: Adobe Illustrator 29.8.1, SVG Export Plug-In . SVG Version: 2.1.1 Build 2)  -->
  <defs>
    <style>
      .st0 {
        fill: #fff;
      }
    </style>
  </defs>
  <g id="Layer_1-2">
    <g>
      <path class="st0" d="M24.3,3.1h-7.7v-1.5c0-.4-.2-.8-.5-1.1C15.9.2,15.5,0,15.1,0h-4.3C10.3,0,10,.2,9.7.4c-.3.3-.4.7-.4,1.1v1.5H1.5c-.9,0-1.5.7-1.5,1.5s.7,1.5,1.5,1.5h22.8c.9,0,1.5-.7,1.5-1.5s-.7-1.5-1.5-1.5Z"/>
      <path class="st0" d="M11.4,19.3v-9.2c0-.9-.7-1.5-1.5-1.5s-1.5.7-1.5,1.5v9.2c0,.9.7,1.5,1.5,1.5s1.5-.7,1.5-1.5Z"/>
      <path class="st0" d="M17.5,19.3v-9.2c0-.9-.7-1.5-1.5-1.5s-1.5.7-1.5,1.5v9.2c0,.9.7,1.5,1.5,1.5s1.5-.7,1.5-1.5Z"/>
      <path class="st0" d="M22.2,8.5h0c-.9,0-1.5.7-1.5,1.5v12.5c0,.2,0,.4-.2.5s-.3.2-.5.2H6c-.2,0-.4,0-.5-.2s-.2-.3-.2-.5v-12.5c0-.9-.7-1.5-1.5-1.5s-1.5.7-1.5,1.5v13.3c0,.9.3,1.6.9,2.2.6.6,1.3.9,2.2.9h15.4c.9,0,1.6-.3,2.2-.9s.9-1.3.9-2.2v-13.3c0-.9-.7-1.5-1.5-1.5h0Z"/>
    </g>
  </g>
</svg>